Coordinates
version=1
nRows=16
nColumns=40
inDegrees=yes

Units are S.I. units (second, meters, Newtons, ...)
Angles are in degrees.

endheader
time	pelvis_tilt	pelvis_list	pelvis_rotation	pelvis_tx	pelvis_ty	pelvis_tz	hip_flexion_r	hip_adduction_r	hip_rotation_r	knee_angle_r	knee_angle_r_beta	ankle_angle_r	subtalar_angle_r	mtp_angle_r	hip_flexion_l	hip_adduction_l	hip_rotation_l	knee_angle_l	knee_angle_l_beta	ankle_angle_l	subtalar_angle_l	mtp_angle_l	lumbar_extension	lumbar_bending	lumbar_rotation	arm_flex_r	arm_add_r	arm_rot_r	elbow_flex_r	pro_sup_r	wrist_flex_r	wrist_dev_r	arm_flex_l	arm_add_l	arm_rot_l	elbow_flex_l	pro_sup_l	wrist_flex_l	wrist_dev_l
     17.96000000	     -4.76140420	     -3.97702374	      2.66455583	      1.07002410	      0.91853802	      0.56101675	     18.02697320	      5.64480046	     -5.45444693	     26.67096388	     26.67096388	     15.41307601	     -5.03490112	     -1.20830299	     21.08565746	    -14.04376227	      5.05738141	     60.15729553	     60.15729553	      6.82982884	    -12.72616116	      3.67791753	     -9.79663752	      3.67110089	     -0.87315345	     12.15751638	    -15.97334425	     -9.46818279	     53.13859753	     45.52001673	      0.00000000	      0.00000000	     13.26659596	    -11.11032052	      0.82997391	     30.03106351	     45.23045557	      0.00000000	      0.00000000
     17.98342857	     -4.52129806	     -4.01854935	      3.23931228	      1.06939896	      0.91695512	      0.56234720	     18.00614949	      5.80141645	     -5.50507749	     27.59932308	     27.59932308	     15.93883620	     -5.99637915	     -1.36819387	     23.09197274	    -13.56076378	      6.24962972	     61.97233963	     61.97233963	      6.83184712	    -14.81174015	      4.08737578	     -9.89046239	      3.47396288	     -0.56768694	     14.77491916	    -16.24002264	     -9.68468681	     55.11464066	     45.47328152	      0.00000000	      0.00000000	     10.21528159	    -10.38182569	      1.12748362	     28.53640145	     45.15096365	      0.00000000	      0.00000000
     18.00685714	     -4.23491158	     -4.05108845	      3.87339752	      1.06869852	      0.91539164	      0.56363973	     17.91001018	      5.98689226	     -5.48692143	     28.49168432	     28.49168432	     16.47070216	     -7.15490460	     -1.40104207	     25.05788669	    -13.07976194	      7.27688543	     63.41308956	     63.41308956	      6.96825580	    -16.64356664	      4.85578562	    -10.07921069	      3.26410878	     -0.38872743	     17.60034834	    -16.52509011	     -9.71803607	     57.45252401	     45.40811293	      0.00000000	      0.00000000	      7.02034831	     -9.76888586	      1.51954591	     26.96135165	     45.05292770	      0.00000000	      0.00000000
     18.03028571	     -3.90802872	     -4.08343004	      4.56196692	      1.06786222	      0.91397524	      0.56475818	     17.72749077	      6.18466157	     -5.46906079	     29.30633100	     29.30633100	     17.14828951	     -8.26463249	     -0.81552886	     27.07346633	    -12.61225442	      8.11983581	     64.61224382	     64.61224382	      8.53154321	    -17.50944056	      8.99755493	    -10.39724339	      3.09763976	     -0.03107806	     20.07334040	    -17.51372562	     -8.36383240	     60.89518471	     45.26324984	      0.00000000	      0.00000000	      3.87806560	     -9.34043941	      3.17705363	     25.66135857	     44.80382757	      0.00000000	      0.00000000
     18.05371429	     -3.68285128	     -4.18303871	      5.37331811	      1.06689262	      0.91256406	      0.56567108	     17.58638675	      6.40150535	     -5.65617315	     29.94180985	     29.94180985	     17.59951583	     -9.30027652	     -0.80075988	     28.99427884	    -12.29871305	      8.74176610	     64.86573655	     64.86573655	      8.88243129	    -18.42257679	      9.64169568	    -10.54933493	      2.97899204	      0.16505212	     23.13974327	    -17.86343914	     -8.71509431	     62.76995062	     45.23070417	      0.00000000	      0.00000000	      0.86692508	     -8.85872015	      3.64386134	     24.31472254	     44.68780279	      0.00000000	      0.00000000
     18.07714286	     -3.44961476	     -4.26117089	      6.24971057	      1.06579439	      0.91156976	      0.56623793	     17.31617484	      6.59499097	     -5.85841539	     30.32558481	     30.32558481	     17.98213845	    -10.35572731	     -0.60144872	     30.74194819	    -11.98775966	      9.11996520	     64.39423644	     64.39423644	      9.65418490	    -18.83473587	     11.13194755	    -10.73754027	      2.88922974	      0.31516807	     26.19719792	    -18.29307049	     -8.78669580	     64.79673791	     45.18442120	      0.00000000	      0.00000000	     -1.99251087	     -8.47198065	      4.28891193	     23.28119380	     44.53558361	      0.00000000	      0.00000000
     18.10057143	     -3.29124649	     -4.28867199	      7.15818339	      1.06457347	      0.91103806	      0.56643079	     16.97619286	      6.62522013	     -6.33418000	     30.42323191	     30.42323191	     18.25428925	    -10.83739096	     -0.59016996	     32.23432481	    -11.67246449	      9.18807856	     62.97089836	     62.97089836	      9.98032605	    -19.04419280	     11.43142299	    -10.81524749	      2.69214606	      1.31555243	     28.72364659	    -19.59501185	     -9.22497482	     65.78384703	     45.18094543	      0.00000000	      0.00000000	     -4.21840817	     -8.10130311	      4.39741769	     22.55288903	     44.47577625	      0.00000000	      0.00000000
     18.12400000	     -3.22968777	     -4.29139144	      8.18721894	      1.06291824	      0.91064353	      0.56602608	     16.75989530	      6.62124739	     -6.72333206	     30.51042581	     30.51042581	     18.63084278	    -11.65364645	      0.05741209	     33.73365472	    -11.02940986	      9.42343158	     61.11324408	     61.11324408	     11.34763505	    -19.08902707	     15.12891033	    -10.98479844	      2.64089516	      1.00218842	     31.71117862	    -20.17671878	     -8.04585603	     68.85814049	     45.07354879	      0.00000000	      0.00000000	     -7.41503271	     -8.21825684	      6.71610575	     23.68922681	     43.97476567	      0.00000000	      0.00000000
     18.14742857	     -3.21140938	     -4.23417786	      9.21165551	      1.06123899	      0.91092778	      0.56526957	     16.36343683	      6.47659385	     -7.31554808	     30.19509718	     30.19509718	     18.76507800	    -12.01837776	      0.17911075	     34.71824253	    -10.44237437	      9.29707084	     58.13079826	     58.13079826	     11.24802269	    -19.08351033	     15.11861709	    -11.02664437	      2.49123153	      1.20977275	     34.52018228	    -20.69065267	     -8.41110847	     70.47942200	     45.05072660	      0.00000000	      0.00000000	     -9.47750640	     -7.99681908	      7.31600445	     23.22716160	     43.83617271	      0.00000000	      0.00000000
     18.17085714	     -3.30189778	     -4.18612455	     10.23529924	      1.05944632	      0.91148936	      0.56420649	     15.98728074	      6.29453801	     -7.99140428	     29.68865107	     29.68865107	     18.80022943	    -12.24021729	      0.26072702	     35.36891976	     -9.88421605	      8.99459107	     54.31065391	     54.31065391	      9.95483638	    -19.01571907	     12.57765036	    -10.98560379	      2.37414109	      1.50084264	     36.93284887	    -21.67126927	     -8.00884574	     72.86876618	     45.00874235	      0.00000000	      0.00000000	    -12.13477681	     -8.52322555	     10.81554134	     25.52859433	     43.20904440	      0.00000000	      0.00000000
     18.19428571	     -3.46376491	     -4.02915671	     11.22284313	      1.05753509	      0.91249545	      0.56269721	     15.55734626	      5.96491731	     -8.65317431	     28.98755817	     28.98755817	     18.77408235	    -12.34759610	      0.40665233	     35.74548049	     -9.02536261	      8.81930154	     50.14489890	     50.14489890	      9.36474984	    -18.73997913	     12.88108973	    -10.86341484	      2.12494667	      1.75940785	     39.52563919	    -22.21753256	     -8.24408889	     74.35323287	     44.98363336	      0.00000000	      0.00000000	    -13.64747280	     -8.30555296	     11.23834565	     25.25632945	     43.12531237	      0.00000000	      0.00000000
     18.21771429	     -3.63792319	     -3.91413893	     12.16259083	      1.05571802	      0.91358775	      0.56093800	     15.04969680	      5.62624706	     -9.47827957	     28.14712776	     28.14712776	     18.64438432	    -12.08964318	      0.07589890	     35.69018351	     -8.34385506	      8.46632133	     45.35930238	     45.35930238	      6.94808150	    -18.35670029	      8.90120850	    -10.79589843	      2.00142439	      1.96160638	     41.70031657	    -23.08060770	     -7.44754320	     77.36924911	     44.90426329	      0.00000000	      0.00000000	    -15.88425926	     -8.76296860	     13.88055588	     27.71478905	     42.74160888	      0.00000000	      0.00000000
     18.24114286	     -3.81233250	     -3.81409367	     13.01624012	      1.05400233	      0.91490200	      0.55900535	     14.44451146	      5.34358296	    -10.21783117	     27.13288275	     27.13288275	     18.43312960	    -11.84557595	     -0.21364243	     35.40403967	     -7.66571218	      8.19333553	     40.55986312	     40.55986312	      4.89750258	    -17.56014009	      6.62693556	    -10.67004169	      1.87167849	      2.19450373	     43.97115543	    -23.54578890	     -7.15729037	     79.51432143	     44.88556370	      0.00000000	      0.00000000	    -17.51614098	     -9.16641034	     17.07611511	     29.22548063	     42.43014570	      0.00000000	      0.00000000
     18.26457143	     -4.01706508	     -3.72995099	     13.78937363	      1.05235926	      0.91610753	      0.55683560	     13.87139420	      5.05547243	    -10.97606924	     26.15794747	     26.15794747	     18.31973644	    -11.43188137	     -0.32702127	     35.13413831	     -7.04053254	      7.90857613	     36.22087122	     36.22087122	      3.70233246	    -15.87998429	      6.55359121	    -10.53045741	      1.75253772	      2.34720146	     46.19463378	    -23.85863961	     -6.69535448	     81.79074948	     44.83289819	      0.00000000	      0.00000000	    -18.79303925	     -9.10132390	     18.28718722	     30.05091459	     42.35991410	      0.00000000	      0.00000000
     18.28800000	     -4.15792626	     -3.71488275	     14.43263726	      1.05099804	      0.91722537	      0.55470272	     13.17493279	      4.91821757	    -11.59278327	     25.07265885	     25.07265885	     18.11659486	    -11.08287066	     -0.61819899	     34.72236311	     -6.65247297	      7.43682001	     32.22759153	     32.22759153	      2.48335418	    -13.73236243	      6.18222716	    -10.42266671	      1.69864528	      2.71391924	     48.22873779	    -24.32022904	     -6.01413953	     84.04486192	     44.79564714	      0.00000000	      0.00000000	    -19.98330966	     -9.26909376	     19.97928356	     31.53426430	     42.33361306	      0.00000000	      0.00000000
     18.31142857	     -4.39477846	     -3.69839850	     14.96390632	      1.04972517	      0.91800049	      0.55244683	     12.69722382	      4.76639532	    -12.05664094	     24.23707860	     24.23707860	     18.07088983	    -10.86669392	     -0.51702452	     34.44046953	     -6.26405047	      6.96180263	     28.86616139	     28.86616139	      1.63942447	    -11.59224412	      6.91516238	    -10.15098949	      1.59314060	      3.05151749	     50.32421766	    -24.26478021	     -5.89016118	     85.36334737	     44.76223771	      0.00000000	      0.00000000	    -20.60749534	     -8.91252842	     20.20900592	     31.60038386	     42.31602871	      0.00000000	      0.00000000
